<mxfile host="65bd71144e" modified="2020-12-27T02:00:02.148Z" agent="5.0 (Windows NT 10.0; Win64; x64) AppleWebKit/537.36 (KHTML, like Gecko) Code/1.52.1 Chrome/83.0.4103.122 Electron/9.3.5 Safari/537.36" etag="NsT9opFb7HHnILl2HJHF" version="13.10.0" type="embed" pages="2">
    <diagram id="ZlEEC4OKQgstSQFalMsB" name="NEW">
        <mxGraphModel dx="1136" dy="534" grid="1" gridSize="10" guides="1" tooltips="1" connect="1" arrows="1" fold="1" page="1" pageScale="1" pageWidth="600" pageHeight="400" math="0" shadow="0">
            <root>
                <mxCell id="0"/>
                <mxCell id="1" parent="0"/>
            </root>
        </mxGraphModel>
    </diagram>
    <diagram id="DMks-3HJC6k_2L6UsAl1" name="OLD">
        <mxGraphModel dx="1136" dy="534" grid="1" gridSize="10" guides="1" tooltips="1" connect="1" arrows="1" fold="1" page="1" pageScale="1" pageWidth="600" pageHeight="400" math="0" shadow="0">
            <root>
                <mxCell id="guQ0oMT0mgO69smM4O0o-0"/>
                <mxCell id="guQ0oMT0mgO69smM4O0o-1" parent="guQ0oMT0mgO69smM4O0o-0"/>
                <mxCell id="zMaxLjFfIaFrdp__VfDV-0" value="" style="group" vertex="1" connectable="0" parent="guQ0oMT0mgO69smM4O0o-1">
                    <mxGeometry x="427" y="100" width="120" height="60" as="geometry"/>
                </mxCell>
                <mxCell id="zMaxLjFfIaFrdp__VfDV-1" value="Arduino" style="rounded=1;whiteSpace=wrap;html=1;horizontal=1;verticalAlign=top;fillColor=#d5e8d4;strokeColor=#82b366;fontStyle=1;fontColor=#000000;" vertex="1" parent="zMaxLjFfIaFrdp__VfDV-0">
                    <mxGeometry width="120" height="60" as="geometry"/>
                </mxCell>
                <mxCell id="zMaxLjFfIaFrdp__VfDV-2" value="" style="dashed=0;outlineConnect=0;html=1;align=center;labelPosition=center;verticalLabelPosition=bottom;verticalAlign=top;shape=mxgraph.weblogos.arduino;fillColor=#36868D;strokeColor=none" vertex="1" parent="zMaxLjFfIaFrdp__VfDV-0">
                    <mxGeometry x="36.83" y="30" width="46.34" height="22" as="geometry"/>
                </mxCell>
                <mxCell id="zMaxLjFfIaFrdp__VfDV-3" value="Start" style="ellipse;whiteSpace=wrap;html=1;fontSize=13;" vertex="1" parent="guQ0oMT0mgO69smM4O0o-1">
                    <mxGeometry x="40" y="110" width="50" height="40" as="geometry"/>
                </mxCell>
                <mxCell id="zMaxLjFfIaFrdp__VfDV-4" value="" style="group" vertex="1" connectable="0" parent="guQ0oMT0mgO69smM4O0o-1">
                    <mxGeometry x="140" y="85" width="46.150000000000006" height="90" as="geometry"/>
                </mxCell>
                <mxCell id="zMaxLjFfIaFrdp__VfDV-5" value="" style="verticalLabelPosition=bottom;verticalAlign=top;html=1;shadow=0;dashed=0;strokeWidth=1;shape=mxgraph.android.phone2;strokeColor=#c0c0c0;horizontal=1;fontSize=13;" vertex="1" parent="zMaxLjFfIaFrdp__VfDV-4">
                    <mxGeometry width="46.15" height="90" as="geometry"/>
                </mxCell>
                <mxCell id="zMaxLjFfIaFrdp__VfDV-6" value="APP" style="text;html=1;align=center;verticalAlign=middle;resizable=0;points=[];autosize=1;" vertex="1" parent="zMaxLjFfIaFrdp__VfDV-4">
                    <mxGeometry x="3.080000000000041" y="35" width="40" height="20" as="geometry"/>
                </mxCell>
                <mxCell id="zMaxLjFfIaFrdp__VfDV-7" value="" style="endArrow=classic;html=1;fontSize=13;exitX=1;exitY=0.5;exitDx=0;exitDy=0;" edge="1" parent="guQ0oMT0mgO69smM4O0o-1" source="zMaxLjFfIaFrdp__VfDV-3" target="zMaxLjFfIaFrdp__VfDV-6">
                    <mxGeometry width="50" height="50" relative="1" as="geometry">
                        <mxPoint x="390" y="395" as="sourcePoint"/>
                        <mxPoint x="440" y="345" as="targetPoint"/>
                    </mxGeometry>
                </mxCell>
                <mxCell id="zMaxLjFfIaFrdp__VfDV-8" value="" style="endArrow=classic;html=1;fontSize=13;dashed=1;entryX=0;entryY=0.25;entryDx=0;entryDy=0;exitX=1.04;exitY=0.333;exitDx=0;exitDy=0;exitPerimeter=0;" edge="1" parent="guQ0oMT0mgO69smM4O0o-1" source="zMaxLjFfIaFrdp__VfDV-5" target="zMaxLjFfIaFrdp__VfDV-1">
                    <mxGeometry width="50" height="50" relative="1" as="geometry">
                        <mxPoint x="250" y="155" as="sourcePoint"/>
                        <mxPoint x="440" y="345" as="targetPoint"/>
                    </mxGeometry>
                </mxCell>
                <mxCell id="zMaxLjFfIaFrdp__VfDV-9" value="" style="endArrow=classic;html=1;fontSize=13;dashed=1;exitX=0;exitY=0.75;exitDx=0;exitDy=0;entryX=0.997;entryY=0.678;entryDx=0;entryDy=0;entryPerimeter=0;" edge="1" parent="guQ0oMT0mgO69smM4O0o-1" source="zMaxLjFfIaFrdp__VfDV-1" target="zMaxLjFfIaFrdp__VfDV-5">
                    <mxGeometry width="50" height="50" relative="1" as="geometry">
                        <mxPoint x="197.9960000000001" y="124.97000000000003" as="sourcePoint"/>
                        <mxPoint x="290" y="195" as="targetPoint"/>
                    </mxGeometry>
                </mxCell>
                <mxCell id="zMaxLjFfIaFrdp__VfDV-10" value="GET" style="text;html=1;strokeColor=none;fillColor=none;align=center;verticalAlign=middle;whiteSpace=wrap;rounded=0;fontSize=13;" vertex="1" parent="guQ0oMT0mgO69smM4O0o-1">
                    <mxGeometry x="280" y="90" width="40" height="20" as="geometry"/>
                </mxCell>
                <mxCell id="zMaxLjFfIaFrdp__VfDV-11" value="RETURN" style="text;html=1;strokeColor=none;fillColor=none;align=center;verticalAlign=middle;whiteSpace=wrap;rounded=0;fontSize=13;" vertex="1" parent="guQ0oMT0mgO69smM4O0o-1">
                    <mxGeometry x="280" y="150" width="40" height="20" as="geometry"/>
                </mxCell>
                <mxCell id="zMaxLjFfIaFrdp__VfDV-12" value="" style="endArrow=classic;html=1;fontSize=13;dashed=1;entryX=0.52;entryY=1.022;entryDx=0;entryDy=0;entryPerimeter=0;exitX=0;exitY=0.75;exitDx=0;exitDy=0;" edge="1" parent="guQ0oMT0mgO69smM4O0o-1" source="zMaxLjFfIaFrdp__VfDV-22" target="zMaxLjFfIaFrdp__VfDV-5">
                    <mxGeometry width="50" height="50" relative="1" as="geometry">
                        <mxPoint x="164" y="305" as="sourcePoint"/>
                        <mxPoint x="196.01154999999994" y="156.01999999999998" as="targetPoint"/>
                        <Array as="points">
                            <mxPoint x="164" y="310"/>
                        </Array>
                    </mxGeometry>
                </mxCell>
                <mxCell id="zMaxLjFfIaFrdp__VfDV-13" value="push" style="text;html=1;strokeColor=none;align=center;verticalAlign=middle;whiteSpace=wrap;rounded=0;fontSize=13;shadow=0;" vertex="1" parent="guQ0oMT0mgO69smM4O0o-1">
                    <mxGeometry x="120" y="235" width="40" height="20" as="geometry"/>
                </mxCell>
                <mxCell id="zMaxLjFfIaFrdp__VfDV-14" value="" style="endArrow=classic;html=1;fontSize=13;dashed=1;entryX=0.325;entryY=1;entryDx=0;entryDy=0;exitX=0.806;exitY=-0.03;exitDx=0;exitDy=0;exitPerimeter=0;entryPerimeter=0;" edge="1" parent="guQ0oMT0mgO69smM4O0o-1" source="zMaxLjFfIaFrdp__VfDV-22" target="zMaxLjFfIaFrdp__VfDV-1">
                    <mxGeometry width="50" height="50" relative="1" as="geometry">
                        <mxPoint x="351.9860000000001" y="459.97" as="sourcePoint"/>
                        <mxPoint x="590.99" y="460" as="targetPoint"/>
                    </mxGeometry>
                </mxCell>
                <mxCell id="zMaxLjFfIaFrdp__VfDV-15" value="" style="endArrow=classic;html=1;fontSize=13;dashed=1;" edge="1" parent="guQ0oMT0mgO69smM4O0o-1">
                    <mxGeometry width="50" height="50" relative="1" as="geometry">
                        <mxPoint x="500" y="162" as="sourcePoint"/>
                        <mxPoint x="500" y="234" as="targetPoint"/>
                    </mxGeometry>
                </mxCell>
                <mxCell id="zMaxLjFfIaFrdp__VfDV-16" value="GET" style="text;html=1;strokeColor=none;fillColor=none;align=center;verticalAlign=middle;whiteSpace=wrap;rounded=0;fontSize=13;" vertex="1" parent="guQ0oMT0mgO69smM4O0o-1">
                    <mxGeometry x="420" y="185" width="40" height="20" as="geometry"/>
                </mxCell>
                <mxCell id="zMaxLjFfIaFrdp__VfDV-17" value="RETURN" style="text;html=1;strokeColor=none;fillColor=none;align=center;verticalAlign=middle;whiteSpace=wrap;rounded=0;fontSize=13;" vertex="1" parent="guQ0oMT0mgO69smM4O0o-1">
                    <mxGeometry x="520" y="185" width="40" height="20" as="geometry"/>
                </mxCell>
                <mxCell id="zMaxLjFfIaFrdp__VfDV-18" value="" style="group" vertex="1" connectable="0" parent="guQ0oMT0mgO69smM4O0o-1">
                    <mxGeometry x="192.92000000000002" y="235" width="354.08" height="110" as="geometry"/>
                </mxCell>
                <mxCell id="zMaxLjFfIaFrdp__VfDV-19" value="&lt;h1&gt;&lt;br&gt;&lt;/h1&gt;" style="text;html=1;strokeColor=none;fillColor=none;spacing=5;spacingTop=-20;whiteSpace=wrap;overflow=hidden;rounded=0;fontSize=13;" vertex="1" parent="zMaxLjFfIaFrdp__VfDV-18">
                    <mxGeometry y="10" width="283.17" height="60" as="geometry"/>
                </mxCell>
                <mxCell id="zMaxLjFfIaFrdp__VfDV-20" value="" style="group" vertex="1" connectable="0" parent="zMaxLjFfIaFrdp__VfDV-18">
                    <mxGeometry x="7.079999999999984" width="347" height="110" as="geometry"/>
                </mxCell>
                <mxCell id="zMaxLjFfIaFrdp__VfDV-21" value="" style="rounded=1;whiteSpace=wrap;html=1;horizontal=1;verticalAlign=top;align=center;" vertex="1" parent="zMaxLjFfIaFrdp__VfDV-20">
                    <mxGeometry x="6.090000000000003" width="340.91" height="110" as="geometry"/>
                </mxCell>
                <mxCell id="zMaxLjFfIaFrdp__VfDV-22" value="&lt;h1&gt;&lt;font style=&quot;font-size: 12px&quot;&gt;&lt;span style=&quot;font-size: 14px&quot;&gt;Windows Forms .NET Framework&amp;nbsp;&lt;/span&gt;&lt;br&gt;&lt;ul&gt;&lt;li style=&quot;text-align: left&quot;&gt;&lt;font style=&quot;font-size: 12px ; font-weight: normal&quot;&gt;Every 5 seconds request status via GET&lt;/font&gt;&lt;/li&gt;&lt;li style=&quot;text-align: left&quot;&gt;&lt;span style=&quot;font-weight: normal&quot;&gt;Send push-notification if alarm&amp;nbsp;beeping&lt;/span&gt;&lt;/li&gt;&lt;/ul&gt;&lt;/font&gt;&lt;/h1&gt;" style="text;html=1;strokeColor=none;fillColor=none;spacing=5;spacingTop=-20;whiteSpace=wrap;overflow=hidden;rounded=0;fontSize=13;align=center;" vertex="1" parent="zMaxLjFfIaFrdp__VfDV-20">
                    <mxGeometry width="330" height="100" as="geometry"/>
                </mxCell>
                <mxCell id="zMaxLjFfIaFrdp__VfDV-23" value="" style="shape=mxgraph.bpmn.shape;html=1;verticalLabelPosition=bottom;labelBackgroundColor=#ffffff;verticalAlign=top;align=center;perimeter=ellipsePerimeter;outlineConnect=0;outline=standard;symbol=timer;fontSize=13;" vertex="1" parent="zMaxLjFfIaFrdp__VfDV-20">
                    <mxGeometry x="314" y="8" width="25" height="25" as="geometry"/>
                </mxCell>
                <mxCell id="zMaxLjFfIaFrdp__VfDV-24" value="APPINVENTOR" style="text;html=1;strokeColor=none;fillColor=none;align=center;verticalAlign=middle;whiteSpace=wrap;rounded=0;" vertex="1" parent="guQ0oMT0mgO69smM4O0o-1">
                    <mxGeometry x="98.08" y="55" width="130" height="20" as="geometry"/>
                </mxCell>
            </root>
        </mxGraphModel>
    </diagram>
</mxfile>